<svg xmlns="http://www.w3.org/2000/svg" viewBox="92 92 322 322"><path style="fill:#89A0FF;" d="M290.3,228.7l19.2-13.8c33.1-23.7,51.4-55.1,51.4-88.4v-12.6H145.1v12.6c0,33.3,18.3,64.7,51.4,88.4l19.2,13.8c6.8,4.9,10.8,13,10.8,21.8v5c0,8.8-4.1,17-10.8,21.8l-19.2,13.8c-33.1,23.7-51.4,55.1-51.4,88.4v12.6h215.7v-12.6c0-33.3-18.3-64.7-51.4-88.4l-19.2-13.8c-6.8-4.9-10.8-13-10.8-21.8v-5C279.4,241.7,283.5,233.5,290.3,228.7z"/><path style="fill:#F7CD47;" d="M346.3,374c-0.1-1.5-0.3-3-0.5-4.5c-3.1-23.6-19.2-43.5-41-50.7c-17.4-5.8-40.2-18.8-50.1-47.9v-36l46.7-33.5c21.8-15.6,36.3-34.7,42.1-55.3l0.7-2.5H161.7l0.7,2.5c5.8,20.6,20.3,39.7,42.1,55.3l46.7,33.5v36c-9.8,29.1-32.6,42.1-50.1,47.9c-21.7,7.2-37.8,27.1-41,50.7c-0.2,1.5-0.3,3-0.5,4.5l-0.1,2.1h186.8V374z"/><path style="fill:#2B3B4E;" d="M124.9,117.8H381c5.8,0,10.6-5.1,10.6-11.5c0-6.3-4.7-11.4-10.6-11.4H124.9 c-5.8,0-10.6,5.1-10.6,11.4C114.4,112.6,119.1,117.8,124.9,117.8z"/><path style="fill:#2B3B4E;" d="M381.1,388.2H124.9c-5.8,0-10.6,5.1-10.6,11.4S119,411,124.9,411H381c5.8,0,10.6-5.1,10.6-11.4 C391.6,393.4,386.9,388.2,381.1,388.2z"/></svg>
