<svg xmlns="http://www.w3.org/2000/svg" viewBox="0 0 42 42"><path d="m21 5c9.378 0 16 6.633 16 16 0 9.366-6.622 16-16 16-9.377 0-16-6.634-16-16 0-9.367 6.623-16 16-16m0-4c-11.046 0-20 8.954-20 20 0 11.045 8.954 20 20 20 11.045 0 20-8.955 20-20 0-11.046-8.955-20-20-20z" fill="#5DF24F"/><path d="m12.593 22.904s0.845-0.904 2.032-1.904 2.875-2.563 2.875-2.563l4.688 7.063s2.83-6.455 6.563-11.25 5.625-6.688 5.625-6.688 0.281 3.031 0.345 5.406c0.063 2.375-0.345 5.365-0.345 5.365s-3.088 1.191-6.125 5.083c-3.897 4.994-5.688 8.708-5.688 8.708s-1.563-1.499-4.313-4.374-5.657-4.846-5.657-4.846z" fill="#018700"/></svg>
